<mxfile host="app.diagrams.net" modified="2024-07-23T12:24:09.637Z" agent="Mozilla/5.0 (Windows NT 10.0; Win64; x64) AppleWebKit/537.36 (KHTML, like Gecko) Chrome/126.0.0.0 Safari/537.36" etag="lqUkIXodQp2HDbNd9Fmb" version="24.7.3" type="github">
  <diagram name="Page-1" id="c7558073-3199-34d8-9f00-42111426c3f3">
    <mxGraphModel dx="11626" dy="11400" grid="1" gridSize="10" guides="1" tooltips="1" connect="1" arrows="1" fold="1" page="1" pageScale="1" pageWidth="1169" pageHeight="827" background="none" math="0" shadow="0">
      <root>
        <mxCell id="0" />
        <mxCell id="1" parent="0" />
        <mxCell id="X9ass70m3cK7fkNfl3eS-96" value="&lt;b&gt;&lt;font style=&quot;font-size: 18px;&quot; color=&quot;#0000cc&quot;&gt;Journey -&amp;nbsp; User | Dr Alice&lt;/font&gt;&lt;/b&gt;" style="text;html=1;align=center;verticalAlign=middle;whiteSpace=wrap;rounded=0;fillColor=none;strokeColor=#6c8ebf;" parent="1" vertex="1">
          <mxGeometry x="-10000" y="-10732" width="240" height="60" as="geometry" />
        </mxCell>
        <mxCell id="X9ass70m3cK7fkNfl3eS-97" value="&lt;div style=&quot;&quot;&gt;&lt;span style=&quot;background-color: initial;&quot;&gt;Dr. Alice (General Practitioner)&lt;/span&gt;&lt;/div&gt;" style="ellipse;whiteSpace=wrap;html=1;aspect=fixed;fillColor=#008a00;strokeColor=#005700;fontColor=#ffffff;align=center;" parent="1" vertex="1">
          <mxGeometry x="-10480" y="-10520" width="80" height="80" as="geometry" />
        </mxCell>
        <mxCell id="FQBWLW0qRdSLTxVGlONL-2" value="Patient Visit" style="ellipse;whiteSpace=wrap;html=1;aspect=fixed;fillColor=#6a00ff;strokeColor=#3700CC;fontColor=#ffffff;" vertex="1" parent="1">
          <mxGeometry x="-10480" y="-10680" width="80" height="80" as="geometry" />
        </mxCell>
        <mxCell id="FQBWLW0qRdSLTxVGlONL-4" value="Register Patient in the system" style="rounded=1;whiteSpace=wrap;html=1;fillColor=#0050ef;fontColor=#ffffff;strokeColor=#001DBC;" vertex="1" parent="1">
          <mxGeometry x="-10500" y="-10360" width="120" height="60" as="geometry" />
        </mxCell>
        <mxCell id="FQBWLW0qRdSLTxVGlONL-6" value="Compiling&amp;nbsp; medical docs and cost" style="ellipse;whiteSpace=wrap;html=1;aspect=fixed;fillColor=#008a00;strokeColor=#005700;fontColor=#ffffff;" vertex="1" parent="1">
          <mxGeometry x="-10280" y="-10370" width="80" height="80" as="geometry" />
        </mxCell>
        <mxCell id="FQBWLW0qRdSLTxVGlONL-7" value="Registration system" style="rounded=1;whiteSpace=wrap;html=1;fillColor=#0050ef;fontColor=#ffffff;strokeColor=#001DBC;" vertex="1" parent="1">
          <mxGeometry x="-10120" y="-10360" width="120" height="60" as="geometry" />
        </mxCell>
        <mxCell id="FQBWLW0qRdSLTxVGlONL-8" value="Logged In?" style="rhombus;whiteSpace=wrap;html=1;fillColor=#e1d5e7;strokeColor=#9673a6;" vertex="1" parent="1">
          <mxGeometry x="-9890" y="-10370" width="80" height="80" as="geometry" />
        </mxCell>
      </root>
    </mxGraphModel>
  </diagram>
</mxfile>
